inDegrees=no
num_controls=7
num_derivatives=13
num_iterations=127
num_multipliers=7
num_parameters=0
num_slacks=7
num_states=26
objective=0.477101
objective_accelerations=0.045447
objective_balance=0.003583
objective_effort=0.040718
objective_height=0.381696
objective_ligament=0.005658
solver_duration=1727.689414
status=Solve_Succeeded
success=true
DataType=double
version=3
OpenSimVersion=4.5
endheader
time	/jointset/ground_pelvis/pelvis_tilt/value	/jointset/ground_pelvis/pelvis_tx/value	/jointset/ground_pelvis/pelvis_ty/value	/jointset/hip_l/hip_flexion_l/value	/jointset/hip_l/hip_adduction_l/value	/jointset/hip_l/hip_rotation_l/value	/jointset/back/lumbar_extension/value	/jointset/patellofemoral_l/patellar_flexion_l/value	/jointset/knee_l/knee_flexion_l/value	/jointset/knee_l/knee_adduction_l/value	/jointset/knee_l/knee_rotation_l/value	/jointset/ankle_l/ankle_angle_l/value	/jointset/subtalar_l/subtalar_angle_l/value	/jointset/ground_pelvis/pelvis_tilt/speed	/jointset/ground_pelvis/pelvis_tx/speed	/jointset/ground_pelvis/pelvis_ty/speed	/jointset/hip_l/hip_flexion_l/speed	/jointset/hip_l/hip_adduction_l/speed	/jointset/hip_l/hip_rotation_l/speed	/jointset/back/lumbar_extension/speed	/jointset/patellofemoral_l/patellar_flexion_l/speed	/jointset/knee_l/knee_flexion_l/speed	/jointset/knee_l/knee_adduction_l/speed	/jointset/knee_l/knee_rotation_l/speed	/jointset/ankle_l/ankle_angle_l/speed	/jointset/subtalar_l/subtalar_angle_l/speed	/forceset/tau_hip_flexion_l	/forceset/tau_hip_adduction_l	/forceset/tau_hip_rotation_l	/forceset/tau_knee_flexion_l	/forceset/tau_ankle_angle_l	/forceset/tau_subtalar_angle_l	/forceset/tau_lumbar_extension	lambda_cid13_p0	lambda_cid13_p1	lambda_cid13_p2	lambda_cid13_p3	lambda_cid13_p4	lambda_cid13_p5	lambda_cid14_p0	/jointset/ground_pelvis/pelvis_tilt/accel	/jointset/ground_pelvis/pelvis_tx/accel	/jointset/ground_pelvis/pelvis_ty/accel	/jointset/hip_l/hip_flexion_l/accel	/jointset/hip_l/hip_adduction_l/accel	/jointset/hip_l/hip_rotation_l/accel	/jointset/back/lumbar_extension/accel	/jointset/patellofemoral_l/patellar_flexion_l/accel	/jointset/knee_l/knee_flexion_l/accel	/jointset/knee_l/knee_adduction_l/accel	/jointset/knee_l/knee_rotation_l/accel	/jointset/ankle_l/ankle_angle_l/accel	/jointset/subtalar_l/subtalar_angle_l/accel	gamma_cid13_p0	gamma_cid13_p1	gamma_cid13_p2	gamma_cid13_p3	gamma_cid13_p4	gamma_cid13_p5	gamma_cid14_p0
0.5	-0.09347944349018439	-0.04072095187606108	0.8050359019182725	0.934937329794936	-0.3297082867550194	-0.07602050491407371	-0.7875654700052239	0.9318256337062353	0.9318256337061526	-0.1016654804812535	-0.1744780002286281	0.1554066644736673	0.01559095439002073	-0.1190747748846619	-0.1549900702710932	-0.4254477624841664	1.611879582338896	-0.03109426551091852	0.578129516655232	-0.839910829712707	1.819896926602532	1.819896926602454	0.1473362485370085	0.001473101413611971	0.4507589753708136	0.1208233107399622	-0.2674675570727465	0.02323140256361906	-0.005032722551617586	-0.2520372076998999	0.08683514689357862	0.04239758906117438	0.3242259854096008	-16.11163341044536	-17.06846859095974	3.953078444746203	-9.645250122391278	-699.0046999866986	-72.47614785639907	-9.323188613267511	0.287730854196888	0.6715764162248744	-0.2278504097541547	-1.437067920680248	0.3485066659594231	-0.36938918541656	1.856104567686493	-1.354240437733756	-1.354240437733755	-0.2883990295018148	0.07537891423858714	-0.2632341468588169	0.3659449730072591	-2.688355823919329e-07	-1.457573627402802e-07	1.667372876862109e-06	1.588172128513844e-07	-2.951374981433307e-07	-5.994916365128068e-08	-2.34531370046897e-07
0.51	-0.09465556975453897	-0.04223732268328986	0.8007710457785501	0.9509816570910568	-0.3300023939505388	-0.07025921407051443	-0.7958713775115464	0.9499537208011064	0.9499537208010232	-0.1002071364580356	-0.1744607482437072	0.159899808778535	0.01681642861630389	-0.1161278554555329	-0.1482901625798392	-0.4274197151135243	1.596745287007881	-0.0277139746698607	0.5738068375734844	-0.8212292167508889	1.805427065150665	1.805427065150557	0.144543669503413	0.001843885497949924	0.4477761769557225	0.124265013523124	-0.273292261384098	0.02351985118547258	-0.005194588472199222	-0.256096399680276	0.0858803865603829	0.04239712991464578	0.3301128710663042	-16.69009561696486	-16.89570908808471	3.844120767886908	-9.31525902367726	-703.6065773631466	-72.332479205426	-8.581108897574452	0.301542323248179	0.6683183318471875	-0.1663616614971514	-1.587730430586537	0.3345505379946511	-0.5121939224924313	1.880407880615696	-1.537327780464236	-1.537327780468733	-0.2430177182137267	-0.00176272776506461	-0.3298551436361978	0.3321350494942938	-2.585569143996773e-07	-1.659883427525178e-07	1.586963523848051e-06	1.478406838305784e-07	-2.825557866326341e-07	-4.448190724087689e-08	-2.279293186886619e-07
0.52	-0.09580155285744371	-0.04368687033635218	0.7964895713181395	0.966867417415589	-0.3302623461887135	-0.06455084734831212	-0.8039892252442158	0.9679283155251617	0.9679283155250616	-0.09877038430074306	-0.1744437265945919	0.1643603146082896	0.01807609029412195	-0.1130461425872461	-0.1416254394377991	-0.4287714266215668	1.580166188025909	-0.02426327403616491	0.5675446923741982	-0.8022988749815857	1.789198452436761	1.789198452436623	0.1430178753527986	0.001427034250431509	0.4442312803485525	0.1276608010472382	-0.2791169656954066	0.02380829980735277	-0.005356454393089701	-0.2601555916606371	0.08492562622719273	0.04239667076815512	0.3359997567230353	-17.27034091451996	-16.72257342590403	3.735032592107235	-9.030298508712027	-708.2669717404732	-72.24073461800904	-7.841698112556417	0.3146895420285826	0.6645395063819923	-0.1038021854910924	-1.726028650871387	0.3625886244869678	-0.7572824089242259	1.905850329183552	-1.705990690141041	-1.705990690141058	-0.03504205290566374	-0.08214815213280464	-0.3756537852747009	0.3567619211976698	-2.632682316351104e-07	-2.449398552425783e-07	1.52067541807006e-06	1.323931772259332e-07	-2.824272811136694e-07	-7.487552576096414e-08	-2.308022587572011e-07
0.53	-0.09691645009093951	-0.04506984035955016	0.7921975295218453	0.9825808183508222	-0.3304884489472642	-0.05890993242504539	-0.811915318691109	0.9857325335441327	0.9857325335441979	-0.09734746062450764	-0.1744328643008224	0.1687828037868045	0.01936829251888214	-0.1099491875475509	-0.1349640352214498	-0.4295489747076109	1.562340251303775	-0.02103138214397227	0.5608439112862624	-0.7827586714346891	1.77142516726069	1.771425167260632	0.1412614661388431	0.0008259230393217435	0.4402004079088167	0.1306699280461751	-0.285498765853519	0.02402629840342685	-0.005381686258170236	-0.2636878923937902	0.08357400034738263	0.04232442334689736	0.3424718334995905	-17.97266681852728	-16.49716109585236	3.617924363923397	-8.814566251421738	-712.9159531308861	-71.99469331744631	-7.125580944791626	0.304790721757942	0.6676452321212677	-0.05159390274599929	-1.836971057365347	0.2921809809282969	-0.5958433653940247	2.002276811792798	-1.845948583308265	-1.845948583296075	-0.291776099172625	-0.03672471751487955	-0.4267329916843915	0.2564025160369359	-2.580978753418716e-07	-2.476366755325633e-07	1.492417791797697e-06	1.288962752721141e-07	-2.740467305776792e-07	-5.388182813525771e-08	-2.287295982726812e-07
0.54	-0.09800085932671714	-0.04638605547001293	0.7879003396881731	0.9981107409439137	-0.3306844944850544	-0.05332989879395248	-0.8196411758136648	1.00335242848095	1.003352428481191	-0.09595126818909523	-0.1744255395415486	0.173162998437246	0.02068726889898909	-0.1069485430350618	-0.1282744568907582	-0.4298010340969307	1.543470519602431	-0.01825182987803594	0.5553684339316924	-0.7622516101137536	1.752333836005901	1.752333836005923	0.137671627183588	0.000719527351623621	0.4357723747346241	0.1330156321169261	-0.29188056601157	0.02424429699948229	-0.005406918123349297	-0.267220193126924	0.08222237446756758	0.04225217592562196	0.3489439102761925	-18.67608077083619	-16.27541986058902	3.505812660902	-8.651009819584619	-717.608453006847	-71.80748873291463	-6.445900238291602	0.2954274365874889	0.6701743292504545	0.00129555385376665	-1.93478764671325	0.2721206992356833	-0.5122216622510287	2.099221883991325	-1.969599905884594	-1.969599905884611	-0.4017280011656444	0.0167949525494039	-0.4550859321660611	0.224077335560429	-2.419946036552087e-07	-1.659666023245913e-07	1.506236440723048e-06	1.38621318889422e-07	-2.565362578951926e-07	2.396592139643393e-08	-2.211852095166914e-07
0.55	-0.09905534916813966	-0.04763538942254163	0.7836034133036582	1.013446330488845	-0.3308542259245261	-0.04780176858343569	-0.8271583378812191	1.020774600723275	1.020774600723449	-0.09459652038138161	-0.1744181240367467	0.1774969673217093	0.02202732835155121	-0.1039262555362396	-0.1216026014515526	-0.4294801372664771	1.523423520416803	-0.01570470956486666	0.5501002963244654	-0.7411396503145941	1.731850125203162	1.731850125203154	0.1333499355860562	0.0007025653043513543	0.4309541972064035	0.1349651040633742	-0.2975585352001903	0.02434239214149359	-0.005447801529688549	-0.2712163878984538	0.08104802039236061	0.0420361380661961	0.3546565733130767	-19.33280022708425	-15.99184343008137	3.375203035623836	-8.280326598592968	-722.2008582262331	-71.61342859746819	-5.803415372908677	0.3090833504758411	0.6641797610374902	0.06305318150787678	-2.073265125539362	0.2442621440867413	-0.5579038742394394	2.123355990178628	-2.125286341430753	-2.125286341435209	-0.4366009255103058	-0.01979078765602234	-0.5052612085022108	0.1755506412245628	-2.2339035581516e-07	-9.858963976757514e-08	1.474696867912245e-06	1.415526468708253e-07	-2.365551664711094e-07	7.900996712572915e-08	-2.092038362734568e-07
